<?xml version="1.0" encoding="utf-8"?>
<!-- Generator: Adobe Illustrator 19.2.1, SVG Export Plug-In . SVG Version: 6.00 Build 0)  -->
<svg version="1.1" id="Calque_1" xmlns="http://www.w3.org/2000/svg" xmlns:xlink="http://www.w3.org/1999/xlink" x="0px" y="0px"
	 viewBox="0 0 973 263" style="enable-background:new 0 0 973 263;" xml:space="preserve">
<path d="M595.1-0.1h31.8V221h106.2v26.8h-138V-0.1z"/>
<path d="M421.4-0.1h31.8V221h106.2v26.8h-138V-0.1z"/>
<path d="M368.5,131.7h-96.5V221h107.4v26.8H240.1V-0.1H374v26.8H272v78.5h96.6C368.5,105.2,368.5,131.7,368.5,131.7z"/>
<path d="M31.9-0.1v103.7h120V-0.1h32.3v247.9h-32.3V131.7h-120v116.2H0.1V-0.1H31.9z"/>
<polygon points="867,-0.1 867,23.9 950,23.9 950,221.8 784,221.8 784,23.9 867,23.9 867,-0.1 761.1,-0.1 761.1,247.8 973,247.8 
	973,-0.1 "/>
</svg>
